<svg width="182" height="182" viewBox="0 0 182 182" fill="none" xmlns="http://www.w3.org/2000/svg">
<path d="M119.438 45.5C116.296 45.5 113.75 42.9538 113.75 39.8125C113.75 36.6712 116.296 34.125 119.438 34.125C122.573 34.125 125.125 31.5734 125.125 28.4375C125.125 25.3016 122.573 22.75 119.438 22.75C116.296 22.75 113.75 20.2038 113.75 17.0625C113.75 13.9212 116.296 11.375 119.438 11.375C128.846 11.375 136.5 19.029 136.5 28.4375C136.5 37.846 128.846 45.5 119.438 45.5Z" fill="#463C4B"/>
<path d="M51.1875 45.5C48.0462 45.5 45.5 42.9538 45.5 39.8125C45.5 36.6712 48.0462 34.125 51.1875 34.125C54.3234 34.125 56.875 31.5734 56.875 28.4375C56.875 25.3016 54.3234 22.75 51.1875 22.75C48.0462 22.75 45.5 20.2038 45.5 17.0625C45.5 13.9212 48.0462 11.375 51.1875 11.375C60.596 11.375 68.25 19.029 68.25 28.4375C68.25 37.846 60.596 45.5 51.1875 45.5Z" fill="#463C4B"/>
<path d="M159.25 159.25H22.75C16.4678 159.25 11.375 154.157 11.375 147.875V51.1875H170.625V147.875C170.625 154.157 165.532 159.25 159.25 159.25Z" fill="#A5C3DC"/>
<path d="M142.188 159.25H22.75C16.4678 159.25 11.375 154.157 11.375 147.875V51.1875H153.562V147.875C153.562 154.157 148.47 159.25 142.188 159.25Z" fill="#D7E6F0"/>
<path d="M159.25 28.4375H22.75C16.4678 28.4375 11.375 33.5303 11.375 39.8125V51.1875H170.625V39.8125C170.625 33.5303 165.532 28.4375 159.25 28.4375Z" fill="#4182C3"/>
<path d="M142.188 28.4375H22.75C16.4678 28.4375 11.375 33.5303 11.375 39.8125V51.1875H153.562V39.8125C153.562 33.5303 148.47 28.4375 142.188 28.4375Z" fill="#64AFE1"/>
<path d="M51.1875 45.5C41.779 45.5 34.125 37.846 34.125 28.4375C34.125 19.029 41.779 11.375 51.1875 11.375C54.3288 11.375 56.875 13.9212 56.875 17.0625C56.875 20.2038 54.3288 22.75 51.1875 22.75C48.0516 22.75 45.5 25.3016 45.5 28.4375C45.5 31.5734 48.0516 34.125 51.1875 34.125C54.3288 34.125 56.875 36.6712 56.875 39.8125C56.875 42.9538 54.3288 45.5 51.1875 45.5Z" fill="#555A6E"/>
<path d="M119.438 45.5C110.029 45.5 102.375 37.846 102.375 28.4375C102.375 19.029 110.029 11.375 119.438 11.375C122.579 11.375 125.125 13.9212 125.125 17.0625C125.125 20.2038 122.579 22.75 119.438 22.75C116.302 22.75 113.75 25.3016 113.75 28.4375C113.75 31.5734 116.302 34.125 119.438 34.125C122.579 34.125 125.125 36.6712 125.125 39.8125C125.125 42.9538 122.579 45.5 119.438 45.5Z" fill="#555A6E"/>
<path d="M42.6562 79.625H31.2812C29.7108 79.625 28.4375 78.3517 28.4375 76.7812V65.4062C28.4375 63.8358 29.7108 62.5625 31.2812 62.5625H42.6562C44.2267 62.5625 45.5 63.8358 45.5 65.4062V76.7812C45.5 78.3517 44.2267 79.625 42.6562 79.625Z" fill="#3769D2"/>
<path d="M65.4062 79.625H54.0312C52.4608 79.625 51.1875 78.3517 51.1875 76.7812V65.4062C51.1875 63.8358 52.4608 62.5625 54.0312 62.5625H65.4062C66.9767 62.5625 68.25 63.8358 68.25 65.4062V76.7812C68.25 78.3517 66.9767 79.625 65.4062 79.625Z" fill="#A5C3DC"/>
<path d="M88.1562 79.625H76.7812C75.2108 79.625 73.9375 78.3517 73.9375 76.7812V65.4062C73.9375 63.8358 75.2108 62.5625 76.7812 62.5625H88.1562C89.7267 62.5625 91 63.8358 91 65.4062V76.7812C91 78.3517 89.7267 79.625 88.1562 79.625Z" fill="#A5C3DC"/>
<path d="M110.906 79.625H99.5312C97.9608 79.625 96.6875 78.3517 96.6875 76.7812V65.4062C96.6875 63.8358 97.9608 62.5625 99.5312 62.5625H110.906C112.477 62.5625 113.75 63.8358 113.75 65.4062V76.7812C113.75 78.3517 112.477 79.625 110.906 79.625Z" fill="#A5C3DC"/>
<path d="M133.656 79.625H122.281C120.711 79.625 119.438 78.3517 119.438 76.7812V65.4062C119.438 63.8358 120.711 62.5625 122.281 62.5625H133.656C135.227 62.5625 136.5 63.8358 136.5 65.4062V76.7812C136.5 78.3517 135.227 79.625 133.656 79.625Z" fill="#A5C3DC"/>
<path d="M42.6562 102.375H31.2812C29.7108 102.375 28.4375 101.102 28.4375 99.5312V88.1562C28.4375 86.5858 29.7108 85.3125 31.2812 85.3125H42.6562C44.2267 85.3125 45.5 86.5858 45.5 88.1562V99.5312C45.5 101.102 44.2267 102.375 42.6562 102.375Z" fill="#3769D2"/>
<path d="M65.4062 102.375H54.0312C52.4608 102.375 51.1875 101.102 51.1875 99.5312V88.1562C51.1875 86.5858 52.4608 85.3125 54.0312 85.3125H65.4062C66.9767 85.3125 68.25 86.5858 68.25 88.1562V99.5312C68.25 101.102 66.9767 102.375 65.4062 102.375Z" fill="#A5C3DC"/>
<path d="M88.1562 102.375H76.7812C75.2108 102.375 73.9375 101.102 73.9375 99.5312V88.1562C73.9375 86.5858 75.2108 85.3125 76.7812 85.3125H88.1562C89.7267 85.3125 91 86.5858 91 88.1562V99.5312C91 101.102 89.7267 102.375 88.1562 102.375Z" fill="#A5C3DC"/>
<path d="M110.906 102.375H99.5312C97.9608 102.375 96.6875 101.102 96.6875 99.5312V88.1562C96.6875 86.5858 97.9608 85.3125 99.5312 85.3125H110.906C112.477 85.3125 113.75 86.5858 113.75 88.1562V99.5312C113.75 101.102 112.477 102.375 110.906 102.375Z" fill="#A5C3DC"/>
<path d="M133.656 102.375H122.281C120.711 102.375 119.438 101.102 119.438 99.5312V88.1562C119.438 86.5858 120.711 85.3125 122.281 85.3125H133.656C135.227 85.3125 136.5 86.5858 136.5 88.1562V99.5312C136.5 101.102 135.227 102.375 133.656 102.375Z" fill="#A5C3DC"/>
<path d="M42.6562 125.125H31.2812C29.7108 125.125 28.4375 123.852 28.4375 122.281V110.906C28.4375 109.336 29.7108 108.062 31.2812 108.062H42.6562C44.2267 108.062 45.5 109.336 45.5 110.906V122.281C45.5 123.852 44.2267 125.125 42.6562 125.125Z" fill="#3769D2"/>
<path d="M65.4062 125.125H54.0312C52.4608 125.125 51.1875 123.852 51.1875 122.281V110.906C51.1875 109.336 52.4608 108.062 54.0312 108.062H65.4062C66.9767 108.062 68.25 109.336 68.25 110.906V122.281C68.25 123.852 66.9767 125.125 65.4062 125.125Z" fill="#A5C3DC"/>
<path d="M88.1562 125.125H76.7812C75.2108 125.125 73.9375 123.852 73.9375 122.281V110.906C73.9375 109.336 75.2108 108.062 76.7812 108.062H88.1562C89.7267 108.062 91 109.336 91 110.906V122.281C91 123.852 89.7267 125.125 88.1562 125.125Z" fill="#A5C3DC"/>
<path d="M110.906 125.125H99.5312C97.9608 125.125 96.6875 123.852 96.6875 122.281V110.906C96.6875 109.336 97.9608 108.062 99.5312 108.062H110.906C112.477 108.062 113.75 109.336 113.75 110.906V122.281C113.75 123.852 112.477 125.125 110.906 125.125Z" fill="#A5C3DC"/>
<path d="M133.656 125.125H122.281C120.711 125.125 119.438 123.852 119.438 122.281V110.906C119.438 109.336 120.711 108.062 122.281 108.062H133.656C135.227 108.062 136.5 109.336 136.5 110.906V122.281C136.5 123.852 135.227 125.125 133.656 125.125Z" fill="#A5C3DC"/>
<path d="M42.6562 147.875H31.2812C29.7108 147.875 28.4375 146.602 28.4375 145.031V133.656C28.4375 132.086 29.7108 130.812 31.2812 130.812H42.6562C44.2267 130.812 45.5 132.086 45.5 133.656V145.031C45.5 146.602 44.2267 147.875 42.6562 147.875Z" fill="#3769D2"/>
<path d="M65.4062 147.875H54.0312C52.4608 147.875 51.1875 146.602 51.1875 145.031V133.656C51.1875 132.086 52.4608 130.812 54.0312 130.812H65.4062C66.9767 130.812 68.25 132.086 68.25 133.656V145.031C68.25 146.602 66.9767 147.875 65.4062 147.875Z" fill="#A5C3DC"/>
<path d="M88.1562 147.875H76.7812C75.2108 147.875 73.9375 146.602 73.9375 145.031V133.656C73.9375 132.086 75.2108 130.812 76.7812 130.812H88.1562C89.7267 130.812 91 132.086 91 133.656V145.031C91 146.602 89.7267 147.875 88.1562 147.875Z" fill="#A5C3DC"/>
<path d="M110.906 147.875H99.5312C97.9608 147.875 96.6875 146.602 96.6875 145.031V133.656C96.6875 132.086 97.9608 130.812 99.5312 130.812H110.906C112.477 130.812 113.75 132.086 113.75 133.656V145.031C113.75 146.602 112.477 147.875 110.906 147.875Z" fill="#A5C3DC"/>
<path d="M133.656 147.875H122.281C120.711 147.875 119.438 146.602 119.438 145.031V133.656C119.438 132.086 120.711 130.812 122.281 130.812H133.656C135.227 130.812 136.5 132.086 136.5 133.656V145.031C136.5 146.602 135.227 147.875 133.656 147.875Z" fill="#A5C3DC"/>
</svg>
